<?xml version="1.0" encoding="iso-8859-1"?>
<!-- Generator: Adobe Illustrator 18.0.0, SVG Export Plug-In . SVG Version: 6.00 Build 0)  -->
<!DOCTYPE svg PUBLIC "-//W3C//DTD SVG 1.1//EN" "http://www.w3.org/Graphics/SVG/1.1/DTD/svg11.dtd">
<svg version="1.1" id="Capa_1" xmlns="http://www.w3.org/2000/svg" xmlns:xlink="http://www.w3.org/1999/xlink" x="0px" y="0px"
	 viewBox="0 0 53.679 53.679" style="enable-background:new 0 0 53.679 53.679;" xml:space="preserve">
<g>
	<path d="M11.766,11.973c2.4-0.438,4.418-0.493,5.795-0.154c-1.519,1.104-3.811,3.232-5.368,6.787
		c-0.229,0.522-0.184,1.092,0.124,1.563c0.524,0.801,1.729,1.002,2.481,0.384c2.895-2.384,5.548-3.675,7.521-3.531
		c-0.026,2.813,0.123,8.916,1.795,11.519c0.312,0.484,0.84,0.772,1.413,0.772c0.532,0,1.039-0.257,1.354-0.689
		c1.036-1.424,3.412-5.354,3.405-11.434c1.461,0.096,4.433,0.587,6.794,2.894c0.667,0.65,1.816,0.595,2.424-0.096
		c0.315-0.357,0.462-0.839,0.401-1.319c-0.241-1.901-1.218-4.553-4.433-6.701c0.909-0.155,2.243-0.292,4.122-0.292
		c0.454,0,0.938,0.008,1.512,0.025c0.749,0,1.396-0.483,1.606-1.204c0.211-0.719-0.071-1.475-0.703-1.88
		c-2.012-1.289-5.13-2.826-8.562-2.826c-1.373,0-2.82,0.464-4.056,0.957V3c0-1.536-0.984-3-2.353-3h-2.223
		c-1.369,0-2.482,1.25-2.425,2.786v4.104c-0.848-0.142-1.958-0.28-3.266-0.28c-3.127,0-5.992,0.765-8.518,2.273
		c-0.653,0.391-0.955,1.146-0.753,1.881C10.088,11.604,10.854,12.138,11.766,11.973z"/>
	<path d="M44.487,11.44c-0.565,1.364-1.872,2.261-3.38,2.261c-0.394-0.012-0.726-0.019-1.029-0.022
		c1.165,1.694,1.641,3.389,1.813,4.738c0.132,1.052-0.19,2.106-0.886,2.895c-0.687,0.78-1.695,1.229-2.766,1.229
		c-0.97,0-1.877-0.364-2.555-1.025c-1.103-1.077-2.383-1.664-3.507-1.982c-0.51,5.357-2.677,8.891-3.679,10.268
		c-0.691,0.948-1.802,1.513-2.972,1.513c-1.257,0-2.414-0.632-3.096-1.69c-1.488-2.317-1.981-6.488-2.09-10.228
		c-1.005,0.394-2.415,1.174-4.271,2.702c-0.643,0.528-1.464,0.818-2.314,0.818c-1.271,0-2.435-0.617-3.111-1.65
		c-0.675-1.034-0.779-2.326-0.283-3.461c0.679-1.55,1.483-2.86,2.319-3.959c-0.183,0.029-0.367,0.062-0.556,0.096
		c-1.632,0.29-3.066-0.454-3.808-1.748c-5.044,4.54-7.923,10.779-7.923,17.271c0,13.353,11.863,24.215,26.446,24.215
		s26.446-10.862,26.446-24.215C53.286,22.494,50.101,16.034,44.487,11.44z M5.4,22.775c0.189-0.519,0.765-0.784,1.283-0.596
		c0.519,0.19,0.785,0.765,0.596,1.283c-0.381,1.04-0.614,2.146-0.694,3.285c-0.036,0.527-0.476,0.931-0.996,0.931
		c-0.023,0-0.047-0.001-0.07-0.003c-0.552-0.038-0.967-0.516-0.929-1.066C4.683,25.281,4.956,23.991,5.4,22.775z M7.3,35.496
		c-0.16,0.095-0.336,0.14-0.509,0.14c-0.342,0-0.675-0.175-0.861-0.49C5.182,33.883,4.691,32.487,4.473,31
		c-0.08-0.547,0.298-1.055,0.844-1.135c0.556-0.087,1.055,0.298,1.135,0.844c0.181,1.229,0.584,2.379,1.199,3.417
		C7.932,34.601,7.776,35.215,7.3,35.496z"/>
</g>
<g>
</g>
<g>
</g>
<g>
</g>
<g>
</g>
<g>
</g>
<g>
</g>
<g>
</g>
<g>
</g>
<g>
</g>
<g>
</g>
<g>
</g>
<g>
</g>
<g>
</g>
<g>
</g>
<g>
</g>
</svg>
